/* XPM */
static char *e99b67d250014b09fd9b1ece75c803e19t0UGcz2k5udfkS3[] = {
/* columns rows colors chars-per-pixel */
"80 80 221 2 ",
"   c #040202",
".  c #0A0604",
"X  c #0E0907",
"o  c #0F0A08",
"O  c #120B06",
"+  c #130D0A",
"@  c #190F0A",
"#  c #16100E",
"$  c #1B120D",
"%  c #1D1412",
"&  c #1F1919",
"*  c #22150F",
"=  c #231611",
"-  c #251913",
";  c #2A1C15",
":  c #211A1B",
">  c #2D1F1A",
",  c #301F16",
"<  c #2C2117",
"1  c #2E211B",
"2  c #342219",
"3  c #34231B",
"4  c #39261D",
"5  c #3D291E",
"6  c #272022",
"7  c #2B2323",
"8  c #332827",
"9  c #3D2A22",
"0  c #3B2C2B",
"q  c #3D3030",
"w  c #412B1F",
"e  c #442D22",
"r  c #482F23",
"t  c #443123",
"y  c #4B3226",
"u  c #4D3328",
"i  c #4B3629",
"p  c #52362A",
"a  c #553A2C",
"s  c #5A3B2E",
"d  c #443533",
"f  c #4A3A3A",
"g  c #5E3F31",
"h  c #503F3F",
"j  c #603F31",
"k  c #59412E",
"l  c #584334",
"z  c #664435",
"x  c #694636",
"c  c #644A35",
"v  c #6B4A37",
"b  c #6D5137",
"n  c #6E5239",
"m  c #72553C",
"M  c #554344",
"N  c #5A4748",
"B  c #54484B",
"V  c #5B4A4C",
"C  c #5C4E52",
"Z  c #624D4F",
"A  c #765944",
"S  c #7B5C42",
"D  c #6B5155",
"F  c #69575B",
"G  c #6E5E61",
"H  c #785D61",
"J  c #7A6467",
"K  c #74666B",
"L  c #BE040D",
"P  c #BF0710",
"I  c #BF0912",
"U  c #C00C15",
"Y  c #C10F18",
"T  c #C2111A",
"R  c #C41720",
"E  c #C51B24",
"W  c #C61E27",
"Q  c #C7222B",
"!  c #C9262F",
"~  c #CA2A34",
"^  c #CA2B34",
"/  c #CD333C",
"(  c #D1333C",
")  c #CE3A43",
"_  c #CD3B44",
"`  c #D13B45",
"'  c #D23C45",
"]  c #846144",
"[  c #8B674A",
"{  c #946D4D",
"}  c #98704F",
"|  c #936E52",
" . c #9D7452",
".. c #9A7459",
"X. c #A27855",
"o. c #865F64",
"O. c #85676B",
"+. c #93696E",
"@. c #8D7074",
"#. c #987677",
"$. c #A47C65",
"%. c #AF7178",
"&. c #D2434D",
"*. c #D34750",
"=. c #D54A53",
"-. c #D84D57",
";. c #CE525A",
":. c #D6535C",
">. c #DA545D",
",. c #D35A62",
"<. c #D95C64",
"1. c #D95C66",
"2. c #E05861",
"3. c #C7646C",
"4. c #D6646C",
"5. c #DB636C",
"6. c #C76D75",
"7. c #DD6B73",
"8. c #DE6A74",
"9. c #CB737B",
"0. c #D9737A",
"q. c #E1626B",
"w. c #E36A73",
"e. c #E5747D",
"r. c #E9757E",
"t. c #E1797C",
"y. c #AE815C",
"u. c #B2845D",
"i. c #BB8A5F",
"p. c #AC846D",
"a. c #B78964",
"s. c #C08E64",
"d. c #C6936A",
"f. c #CB966B",
"g. c #D29B6E",
"h. c #C99778",
"j. c #D59E72",
"k. c #DCA376",
"l. c #E3A97D",
"z. c #E5AB7C",
"x. c #997F84",
"c. c #A37D83",
"v. c #BB7D83",
"b. c #D07C84",
"n. c #E67A83",
"m. c #E37B85",
"M. c #E37D88",
"N. c #9D8389",
"B. c #A4868B",
"V. c #A8888B",
"C. c #B6898F",
"Z. c #A78B90",
"A. c #AB8C92",
"S. c #B6959B",
"D. c #B99DA3",
"F. c #C68D94",
"G. c #D08F90",
"H. c #E5838B",
"J. c #E7858A",
"K. c #E68B93",
"L. c #E98E97",
"P. c #E88E99",
"I. c #ED9191",
"U. c #EA939C",
"Y. c #E99898",
"T. c #D8A384",
"R. c #D9A895",
"E. c #E6AC82",
"W. c #E9AE88",
"Q. c #ECB183",
"!. c #EAB18B",
"~. c #F2B68A",
"^. c #E9AC9A",
"/. c #F0AC9E",
"(. c #ECB395",
"). c #EBB599",
"_. c #F3B893",
"`. c #F4BC9D",
"'. c #C99BA2",
"]. c #D29CA3",
"[. c #EA9BA4",
"{. c #F29CA4",
"}. c #F39DA6",
"|. c #CBA8AF",
" X c #D7A8AC",
".X c #D8ADB4",
"XX c #EDA8A6",
"oX c #EEA4AC",
"OX c #F3A5AD",
"+X c #F0AAAB",
"@X c #ECB6A6",
"#X c #F3BDA4",
"$X c #F3B5A8",
"%X c #F1BDAA",
"&X c #E8ACB4",
"*X c #F5A9B2",
"=X c #F2ACB4",
"-X c #E1B0B7",
";X c #EFBBB2",
":X c #E3B3BB",
">X c #E9B5BD",
",X c #F3BCB3",
"<X c #F4B6B9",
"1X c #F9C19D",
"2X c #F7C2A7",
"3X c #F5C3B5",
"4X c #FAC5B4",
"5X c #F6C3BD",
"6X c #F9C7BA",
"7X c #FBC9BB",
"8X c #EABCC3",
"9X c #F5BCC4",
"0X c #F8B8C2",
"qX c #F7C3C4",
"wX c #F8C5C5",
"eX c #F8C9C5",
"rX c #F9C5CC",
"tX c #FACACC",
"yX c #FACDCE",
"uX c #FAC7D0",
"iX c #FCCCD2",
/* pixels */
"z z z z z z z z z z z z z z z z z z z z z z z z z z z z z z z z z z z z z z z z z z z z z z z z z z z z z z z z z z z z z z z z z z z z z z z z z z z z z z z z ",
"z z z z z z z z z z z z z z z z z z z z z z z z z z z z z z z z z z z z z z z z z z z z z z z z z z z z z z z z z z z z z z z z z z z z z z z z z z z z z z z z ",
"z z z z z z z z z z z z z z z z z z z z z z z z z z z z z z z z z z z z z z z z z z z z z z z z z z z z z z z z z z z z z z z z z z z z z z z z z z z z z z z z ",
"z z z z z z z z z z z z z z z z z z z z z z z z z z z z z z z z z z z z z z z z z z z z x x x x x x x x x x x x x x z z z z z z z z z z z z z z z z z z z z z z ",
"z z z z z z z z z z z z z z z z z z z z z z z z z z z z z z z z z z z z z z z z z z z z z x x x x x x x x x x x x z z z z z z z z z z z z z z z z z z z z z z z ",
"z z z z z z z z z z z z z z z z z z z z z z z z z z z z z z z z z z z z z z z z z z z z z g g g g g g g g g g g z z z z z z z z z z z z z z z z z z z z z z z z ",
"z z z z z z z z z z z z z z z z z z z z z z z z z z z z z z z z z z z z z z z z x z z a y e e e e e e e e e e e e u s z z x z z z z z z z z z z z z z z z z z z ",
"z z z z z z z z z z z z z z z z z z z z z z z z z z z z z z z z z z z z z z z x x x s y 3 - * * * * * * * * * * - 4 y g x x x z z z z z z z z z z z z z z z z z ",
"z z z z z z z z z z z z z z z z z z z z z z z z z z z z z z z z z z z z z z z z x z a 9 - + X X X X X X X X X X + ; e s z x z z z z z z z z z z z z z z z z z z ",
"z z z z z z z z z z z z z z z z z z z z z z z z z z z z z z z z z z z z z z z z g a u 9 1 : & & : : : : : & & & : 7 e p s j z z z z z z z z z z z z z z z z z z ",
"z z z z z z z z z z z z z z z z z z z z z z z z z z z z z z z z z z z z x x z a r 5 9 d M V C C C C C C C C C C V M d 9 5 y s z x x z z z z z z z z z z z z z z ",
"z z z z z z z z z z z z z z z z z z z z z z z z z z z z z z z z z z z x x x z r , = 8 M O.B.A.A.Z.Z.Z.Z.Z.A.A.A.N.J h 1 = 3 y z x x z z z z z z z z z z z z z z ",
"z z z z z z z z z z z z z z z z z z z z z z z z z z z z z z z z z z z z z z s e - % 8 F V. X>X>X:X-X-X-X-X:X>X:X Xc.Z 7 % ; e g z z z z z z z z z z z z z z z z ",
"z z z z z z z z z z z z z z z z z z z z z z z z z z z z z z z z z z z z s p y 9 8 0 M O.F.[.*X*XOXOXOXOXOXOX*X*X[.C.H h 8 8 e u p s z z z z z z z z z z z z z z ",
"z z z z z z z z z z z z z z z z z z z z z z z z z z z z z z z z x x z s e 3 3 d N G +.%.9.e.r.r.r.r.r.r.r.r.r.r.0.9.%.O.F M q 3 4 r s z x x z z z z z z z z z z ",
"z z z z z z z z z z z z z z z z z z z z z z z z z z z z z z z z x x z u 3 * ; h O.A.F.9.,.&.' ' ' ' ' ' ' ` ' ` &.,.b.F.V.J d - * 4 p z x x z z z z z z z z z z ",
"z z z z z z z z z z z z z z z z z z z z z z z z z z z z z z z z z z s y 1 - 7 Z c.].U.e.&.W T T T R R R R T T T Q =.n.[.'.#.M > - 3 u g z z z z z z z z z z z z ",
"z z z z z z z z z z z z z z z z z z z z z z z z z z z z z x z z a y e e q f N O.v.K.n.2.^ U L L L P P P P L L P T ` q.J.G.%.H M d d t y p s z z z z z z z z z z ",
"z z z z z z z z z z z z z z z z z z z z z z z z z z z z x x x s e , ; 0 V J #.%.9.4.-.( E I L L L L L L L L L I T ! ' >.4.6.%.@.J M 0 3 4 y g z x z z z z z z z ",
"z z z z z z z z z z z z z z z z z z z z z z z z z z z z z x z a 4 * % q J A.].H.1.) ! E T T Y Y T T T T T Y Y Y T T W ^ _ 4.G.'.V.F 8 % = 5 s z x z z z z z z z ",
"z z z z z z z z z z z z z z z z z z z z z z z z z z z z z g s u 9 1 8 M @.'.[.n.=.Q T R Q ^ ^ ^ ^ ^ ^ ^ ^ ! W T T U I T ^ q.{.>X'.K 8 o @ 4 s z x x z z z z z z ",
"z z z z z z z z z z z z z z z z z z z z z z z z z x x z s y e e d M Z o.%.b.r.2.( T T ^ &.,.1.1.1.1.1.1.1.=./ W U L L I ^ q.{.9X|.K 8 + @ 4 s x x x z z z z z z ",
"z z z z z z z z z z z z z z z z z z z z z z z z z x x z y 3 ; 8 M O.c.v.6.,.&.^ E T Q &.8.K.U.[.U.U.U.[.L.e.:.^ T L L U ^ q.{.9X|.K 8 + $ 4 s x x x z z z z z z ",
"z z z z z z z z z z z z z z z z z z z z z z z z z z z s 5 * + 7 F Z. XU.8.) Q T T E / 5.L.=X9X9X0X<X9X9X<XU.7.) W U I T ^ 1.U.&X'.J q % $ 4 a z z z z z z z z z ",
"z z z z z z z z z z z z z z z z z z z z z x x z z s p e ; O . 7 G D.8XOXw./ T T Q ) :.t.XX,XeXeX5X5XeXeX5XXXH.1.' ^ E T ! =.r.P.F.+.N d 0 e y p s g z z z z z z ",
"z z z z z z z z z z z z z z z x x x x x x x x z s y 3 - O   . 7 G D.8XOXw./ E ! *.7.H.Y./.#X%X2X%X%X%X2X#X/.Y.J.0.:./ W W / -.4.6.%.+.J Z f 9 4 e a z z z z z z ",
"z z z z z z z z z z z z z z z z z z z z x x x z p 4 = O       7 G D.>X{.w./ Q ) 8.U.+X@X(.!.!.!.!.!.!.!.!.(.@X+X[.n.=.! T R ! ) ;.9.F.C.@.M 1 = 3 y z x x z z z ",
"z z z z z z z z z z z z z z z g g s s s g g g s u 9 ; % + o % q H C.oXL.1./ ! &.e.XX=X@X(.W.E.E.E.E.E.E.E.(.@X;XoXH.:.^ T I U E &.r.oX.XB.V : O = e g x x z z z ",
"z z z z z z z z z z x x z g p r w 5 5 5 5 5 5 9 e d h M M M B D +.v.H.w.*.! Q ) 5.H.Y.^.^.).).).).).).).).).^.Y.K.7.&.Q U L L Y ` r.*X>XA.C : X * e g x x z z z ",
"z z z z z z z z z z x x z s e > * $ $ $ $ @ @ = 0 V O.x.N.N.N.c.%.3.:.&.^ W E ! ) >.7.J.XX%X3X3X3X3X3X3X,XXXI.0.1.&.^ E U L L U ( r.OX>XA.C : X * e g x x z z z ",
"z z z z z z z z z z z x z p 4 = + X X o X . . # 0 H A. X:X:X.X].0.;.^ W T T T T E ^ &.0.Y.<XwXeXqXqXwXeX<XXXt.=.^ W T T T U U E ' n.OX:XZ.C : X * e g x x z z z ",
"z z z z z z z z z z z s p y 9 8 7 6 6 7 6 : : 8 M +.F.oX<X<X=XU.7.) E U U Y T U U T ^ >.H.oX=X=X=X=X=X=XoXK.1./ T U I U T R Q / >.J.=X:XZ.C : X * e g x x z z z ",
"z z z z z z z x x z p w 3 9 f N D F F F F F F F O.%.9.M.J.J.n.w.-.^ T I I U Y U I U W ) 1.e.M.M.m.m.M.M.n.5.&.Q U L L U T ^ &.1.m.{.0X:XZ.C : X * e g x x z z z ",
"z z z z z z x x x g e - = 8 V @.A.S.S.S.S.S.S.S.C.6.:.=.&.*.&.' ^ W T U U Y T U U Y R ! / &.&.&.&.&.&.&.&.) ^ E Y I L U W &.7.K.OX0XrX:XZ.C : X * e g x x z z z ",
"z z z z z z z z z a 5 - % q J S.:X9X8X>X:X>X>X&XP.4.) Q R E E E R T T T T T T T T T T T E E W W W W W W W E T T T T T E / 1.K.=XeXiXtX:XB.V : X * e g x x z z z ",
"z z z z z z g a p y e 0 d D x..XuXrX<XOX{.OXOX{.m.:.^ T P I U U U Y T T T T T T T T T U U U U U U U U U U U U U T E ! ) :.m.oXrXiXiXeX-Xp.N : X = e g x x z z z ",
"z z z z z z a e 3 9 f Z J N.|.8XiX0X{.n.w.w.w.w.>.' W U P I U U U Y T T T T T T T T Y U U U U U U U U U U I P I T ^ &.5.H.[.0XuXiXyX4X^.$.l & X = e g x x z z z ",
"z z z x x z y , % > M @.S..XqXuX9X{.e.=./ / / / ^ Q R T U U Y Y T T T T T T T T T T T T Y Y Y Y Y Y Y Y Y U I U E ) 5.U.=X9XrXrXwX6X`.T...l % X = e g x x z z z ",
"z z z x x g e = O : V B.-XrXuX9X=XH.>.^ T U T T T T T T T T T T T T T T T T T T T T T T T T T T T T T T T T T W / >.H.=XrXiXtXqX,X).T.a.[ a = # ; y z x x z z z ",
"z z z x x g e * X : C A.8XrX0X{.H.1.) W U L P U U U Y Y T T T T T T T T T T T T T T T T T T T T T T U U U E ^ ' ,.n.{.9XiXiXwX;XR.h.$.[ v y 3 > 5 p z z x z z z ",
"z z z x x g e * X : C A.>X0X{.e.:.) Q T U I U U U U T T T T T T T T T T T T T T T T T T T T T T T Y U I U Q &.7.K.oX0XrXtXeX3X).h...m a t e e e p s z z z z z z ",
"z z z x x g e * X : C Z.:X*XJ.-.^ E T T T Y T T T T T T T T T T T T T T T T T T T T T T T T T T T T U U R / 5.L.=X9XrXrXwX3X`.E.a.S t - - 5 p g z z z z z z z z ",
"z z z x x g e * X : C Z.-XOXr.' T I U Y T T T T T T T T T T T T T T T T T T T T Y Y Y Y Y Y U U Y T E Q / :.M.=XeXiXtXqX3X#X_.k.u.b < o # 4 s z x x z z z z z z ",
"z z z x x g e * X : C Z.-XOXe.' T L I Y T T T T T T T T T T T T T T T T T T T U U U U U U U I P U T ^ &.5.M.{.0XiXtXqX,X#X_.~.l.u.n 1 O # 4 g x x x z z z z z z ",
"z z z x x g e * X : C Z.-XOXr.` T I I Y T T T T T T T T T T T T T T T T T T T Y U U U U U U I P U W &.7.P.OX0XrXrXqX%X).!.~.Q.l.u.n 1 o # 4 s z x x z z z z z z ",
"z z z x x g e * X : C Z.-XOXr.' R U U T T T T T T T T T T T T T T T T T T T T T E E W W W W E T E / ,.J.=XqXtXeXqX,X).W.l.z.l.g.X.v 3 + $ 5 s z x z z z z z z z ",
"z z z x x g e * X : C Z.-XOXr.' R U U T T T T T T T T T T T T T Y U U U U U T Q / ' &.*.&.&.&.' &.>.0.Y.,X5XeX5X3X#X_.Q.k.g.a.X.] k 3 - > e s z x z z z z z z z ",
"z z z x x g e * X : C Z.-XOXr.' R U U T T T T T T T T T T T T Y U U U I L I T / :.8.m.M.m.m.n.n.m.H.I.^.@X%X%X#X#X`.~.Q.k.u.[ v a t 9 9 e p z z z z z z z z z z ",
"z z z x x g e * X : C Z.-XOXr.' R U U T T T T T T T T T T T T T T T T U I U Q &.e.[.=X=X=X=X=X=X=X+XXX^.!.!.!.!.W.Q.Q.l.f.} l 3 ; 3 y a s z z z z z z z z z z z ",
"z z z x x g e * X : C Z.:XOXr.' R U U Y T T T T T T T T T Y T T E Q ! ! Q ! ) 1.J.=XqXeXwXqXqXwXqX5X%X(.E.k.j.g.f.f.g.d.y.S t = $ 3 p z x x z z z z z z z z z z ",
"z z z x x g e * X : C Z.:XOXe.' T P I Y T T T T T T T T U U U E ^ &.:.,.>.,.5.t.Y.$X3X6X6X6X6X6X6X4X#X_.z.j.i.X.[ [ [ [ S l 9 ; > e s z x x z z z z z z z z z z ",
"z z z x x g e * X : C Z.:XOXe.' T L I Y T T T T T T T T U I U Q &.7.H.P.U.L.L.Y.^.).).`.`.`.`.`.`.`._.~.z.f. .b i t t t t e e e r p g z x x z z z z z z z z z z ",
"z z z x x g e * X : V Z.-XOXn.&.W Y U T T T T T T T T T U U T / 1.K.=X0X9X<X<X$X(.W.E.l.l.l.l.l.l.l.l.l.k.a.S t % O o # = 3 t a z z z z z z z z z z z z z z z z ",
"z z z x x g e = X - V B. X+XJ.1.) ! E T Y U U U U U U T E Q / -.n.oXrXiXiXeX6X%X).Q.k.f.s.a.u.u.u.u.a.a.y.{ c 3 @ . . O $ 3 u z x x z z z z z z z z z z z z z z ",
"z z z x x g e = X & l $.R./.Y.H.5.=./ E U P I U I P I T ! &.1.M.[.<XiXiXtX6X2X`.~.z.j.u.{ m b b n m m m n c i 5 > - = ; 3 e a z x x z z z z z z z z z z z z z z ",
"z z z x x g e = X % l ..T.(.$X+XU.e.*.Q U P I U U P U E ) 5.L.OX0XrXrXwX3X`.(.~.~.l.d.} c 5 < < 3 3 3 3 3 4 9 e y y y y u a g z z z z z z z z z z z z z z z z z ",
"z z z x x g e = o $ a } j.!.2X3X=XK.5./ Q E E W W E W ^ :.H.=XqXtXrXqX;X).T.j.k.k.g.y.S t # . . X O X X + = 4 u g z z z z z z z z z z z z z z z z z z z z z z z ",
"z z z x x g e = o % a } j.~.2X4X,X/.m.1.*.&.*.*.*.&.&.>.w.Y.,X7XeX7X,X^.G.y. . . . .] c 5 $ + + + @ + + # ; 9 a z x x x x z z z z z z z z z z z z z z z z z z z ",
"z z z x x g e = X $ a  .j.~.1X1X#X/.Y.J.M.M.M.M.M.M.M.H.I./.#X2X2X2X).T.$.A k a k k a y 9 3 3 3 3 3 3 3 3 e u g z x x x z z z z z z z z z z z z z z z z z z z z ",
"z z z x x g e = o $ a } g.z.Q.Q.W.^.XX+X=X=X=X=X=X=X=X=XXX^.!.W.!.!.T.a.S t = # # = ; 4 y p a a a a a a a s g z z z z z z z z z z z z z z z z z z z z z z z z z ",
"z z z x x z y > $ - a ] u.d.d.d.f.T.^.,XwXwXwXwXwXwXwX,X@XT.h.d.d.d.a.} c 3 +   . O % 3 u z x x z z z z z z z z z z z z z z z z z z z z z z z z z z z z z z z z ",
"z z z z z z p e 3 3 y c S ] ] ] [ p.T.@X6X7X7X6X6X7X7X%XR.p.| ] ] ] S v i 3 = # $ = > e a z x x x x x x x x z z z z z z z z z z z z z z z z z z z z z z z z z z ",
"z z z z z z g a y t e t t 9 5 5 i A p.T.`.1X`.`.`.1X`.!.a.[ k e 5 5 t e e e e e e e y p g z x x x x x x x z z z z z z z z z z z z z z z z z z z z z z z z z z z ",
"z z z z z z z z g a e > # + . o - a [ d.k.E.l.k.l.l.l.h...c 1 + . o # - 5 p g z g g g z z z z z z z z z z z z z z z z z z z z z z z z z z z z z z z z z z z z z ",
"z z z z z z x x x g e > # X . X $ e n } y.u.u.y.u.u.u.X.S i - O . X + ; e s z x x x z z z z z z z z z z z z z z z z z z z z z z z z z z z z z z z z z z z z z z ",
"z z z z z z x x x z p e 3 ; ; ; 3 9 a c v b b v v b b c a t 3 ; ; ; > 4 u g x x x x x z z z z z z z z z z z z z z z z z z z z z z z z z z z z z z z z z z z z z ",
"z z z z z z z z z z g a p u u u y e 5 3 < < < < < < < 3 4 e y u u u u a s z z x z z z z z z z z z z z z z z z z z z z z z z z z z z z z z z z z z z z z z z z z ",
"z z z z z z z z z z z z z z z z g y 3 # o X X o X X X @ ; e s z z z z z z z z z z z z z z z z z z z z z z z z z z z z z z z z z z z z z z z z z z z z z z z z z ",
"z z z z z z z z z z z x x x v x z p 4 - # + @ # @ + @ = 3 y g x v x x x z z z z z z z z z z z z z z z z z z z z z z z z z z z z z z z z z z z z z z z z z z z z ",
"z z z z z z z z z z z z x x x x z s y 9 4 3 4 4 4 3 3 5 y a z x x x x x z z z z z z z z z z z z z z z z z z z z z z z z z z z z z z z z z z z z z z z z z z z z ",
"z z z z z z z z z z z z z z z z z z g s s a s s s a s s g z z z z z z z z z z z z z z z z z z z z z z z z z z z z z z z z z z z z z z z z z z z z z z z z z z z ",
"z z z z z z z z z z z z z z z z z z z z z z z z z z z z z z z z z z z z z z z z z z z z z z z z z z z z z z z z z z z z z z z z z z z z z z z z z z z z z z z z ",
"z z z z z z z z z z z z z z z z z z x x x x x x x x x x x z z z z z z z z z z z z z z z z z z z z z z z z z z z z z z z z z z z z z z z z z z z z z z z z z z z ",
"z z z z z z z z z z z z z z z z z z z z z z z z z z z z z z z z z z z z z z z z z z z z z z z z z z z z z z z z z z z z z z z z z z z z z z z z z z z z z z z z ",
"z z z z z z z z z z z z z z z z z z z z z z z z z z z z z z z z z z z z z z z z z z z z z z z z z z z z z z z z z z z z z z z z z z z z z z z z z z z z z z z z ",
"z z z z z z z z z z z z z z z z z z z z z z z z z z z z z z z z z z z z z z z z z z z z z z z z z z z z z z z z z z z z z z z z z z z z z z z z z z z z z z z z ",
"z z z z z z z z z z z z z z z z z z z z z z z z z z z z z z z z z z z z z z z z z z z z z z z z z z z z z z z z z z z z z z z z z z z z z z z z z z z z z z z z ",
"z z z z z z z z z z z z z z z z z z z z z z z z z z z z z z z z z z z z z z z z z z z z z z z z z z z z z z z z z z z z z z z z z z z z z z z z z z z z z z z z ",
"z z z z z z z z z z z z z z z z z z z z z z z z z z z z z z z z z z z z z z z z z z z z z z z z z z z z z z z z z z z z z z z z z z z z z z z z z z z z z z z z ",
"z z z z z z z z z z z z z z z z z z z z z z z z z z z z z z z z z z z z z z z z z z z z z z z z z z z z z z z z z z z z z z z z z z z z z z z z z z z z z z z z "
};
