/* XPM */
static char *bd2d3070a9304fe796112b12a11a76c1jRyCfdPFwU1Xo6U1[] = {
/* columns rows colors chars-per-pixel */
"80 80 249 2 ",
"   c #020102",
".  c #0B0603",
"X  c #0E0905",
"o  c #04050B",
"O  c #0C0608",
"+  c #0F0908",
"@  c #110A05",
"#  c #1B0D04",
"$  c #120B0B",
"%  c #161501",
"&  c #1C1605",
"*  c #1E1C00",
"=  c #16120D",
"-  c #1C120C",
";  c #090910",
":  c #0E1014",
">  c #161514",
",  c #191515",
"<  c #14151A",
"1  c #1D1D1C",
"2  c #22140D",
"3  c #241908",
"4  c #351900",
"5  c #3A1B00",
"6  c #241513",
"7  c #2A1911",
"8  c #261718",
"9  c #261919",
"0  c #281B1A",
"q  c #301E19",
"w  c #322307",
"e  c #373400",
"r  c #393500",
"t  c #3B3801",
"y  c #34221C",
"u  c #382518",
"i  c #222222",
"p  c #26262A",
"a  c #372822",
"s  c #2B2E33",
"d  c #36373A",
"f  c #562A00",
"g  c #523406",
"h  c #41291F",
"j  c #463716",
"k  c #6E3703",
"l  c #7C3700",
"z  c #7D3A00",
"x  c #432B24",
"c  c #482F25",
"v  c #492F28",
"b  c #463227",
"n  c #4B3125",
"m  c #4C3329",
"M  c #513A22",
"N  c #53372B",
"B  c #56392C",
"V  c #5B3C2F",
"C  c #4E3E36",
"Z  c #473C38",
"A  c #523E35",
"S  c #5D3E30",
"D  c #603F32",
"F  c #484500",
"G  c #4A410B",
"H  c #534901",
"J  c #545200",
"K  c #5E530B",
"L  c #775106",
"P  c #786A02",
"I  c #7B7401",
"U  c #7E7A00",
"Y  c #55422F",
"T  c #46413D",
"R  c #4B423D",
"E  c #5C4135",
"W  c #55433B",
"Q  c #5B463B",
"!  c #5C453B",
"~  c #664435",
"^  c #694636",
"/  c #614639",
"(  c #644C3A",
")  c #705335",
"_  c #3D4043",
"`  c #444343",
"'  c #484747",
"]  c #4C4D4D",
"[  c #574B45",
"{  c #5B4B44",
"}  c #524D4B",
"|  c #57514E",
" . c #5A514D",
".. c #4B4E53",
"X. c #4F5253",
"o. c #555454",
"O. c #595656",
"+. c #5B5C5D",
"@. c #614F47",
"#. c #66554A",
"$. c #655C57",
"%. c #7B624A",
"&. c #64605E",
"*. c #6B625E",
"=. c #716A55",
"-. c #5C5E61",
";. c #5D6266",
":. c #636464",
">. c #6C6563",
",. c #676768",
"<. c #6E6C6B",
"1. c #756D67",
"2. c #77716C",
"3. c #6D6F76",
"4. c #747473",
"5. c #7A7776",
"6. c #7C7D7D",
"7. c #813D00",
"8. c #9E5100",
"9. c #9D5B1C",
"0. c #A4560C",
"q. c #9E6D09",
"w. c #817A01",
"e. c #B96718",
"r. c #B16A18",
"t. c #885729",
"y. c #945C25",
"u. c #875C31",
"i. c #9A652A",
"p. c #956D32",
"a. c #AB6B29",
"s. c #A66B33",
"d. c #C45E00",
"f. c #C56305",
"g. c #D96D05",
"h. c #C8750E",
"j. c #DC750B",
"k. c #C56C16",
"l. c #E77507",
"z. c #F47601",
"x. c #F37A02",
"c. c #FB7D01",
"v. c #9B724B",
"b. c #8B6C51",
"n. c #8F6F50",
"m. c #AC7644",
"M. c #8E7A67",
"N. c #867E79",
"B. c #8A8201",
"V. c #8F8800",
"C. c #938C00",
"Z. c #9D9500",
"A. c #9D9A00",
"S. c #A6900F",
"D. c #B7AE0E",
"F. c #B5AB2C",
"G. c #D29006",
"H. c #E98E07",
"J. c #F48100",
"K. c #FE8400",
"L. c #F78903",
"P. c #FF8B00",
"I. c #FF9300",
"U. c #F29903",
"Y. c #FF9B00",
"T. c #D2AE06",
"R. c #C4B600",
"E. c #C4BB00",
"W. c #FFA300",
"Q. c #F4AD03",
"!. c #FFAB00",
"~. c #EBB90F",
"^. c #FFB400",
"/. c #F5B902",
"(. c #FFBB00",
"). c #EE9433",
"_. c #F3AC24",
"`. c #C8C100",
"'. c #D3C800",
"]. c #DACC00",
"[. c #DDD200",
"{. c #DDD900",
"}. c #FFC400",
"|. c #F4CF00",
" X c #FFCB00",
".X c #E3D30B",
"XX c #FFD500",
"oX c #F2DB03",
"OX c #FFDD00",
"+X c #F2E400",
"@X c #FFE300",
"#X c #F4EA00",
"$X c #FEED00",
"%X c #F4F000",
"&X c #FFF300",
"*X c #FFFA00",
"=X c #898647",
"-X c #8E8073",
";X c #978677",
":X c #A4936C",
">X c #D6B34F",
",X c #F4B674",
"<X c #7D7F82",
"1X c #838383",
"2X c #898888",
"3X c #8C8C8D",
"4X c #918D88",
"5X c #97928E",
"6X c #8B8E91",
"7X c #8E9398",
"8X c #939494",
"9X c #979797",
"0X c #999A9A",
"qX c #AE9B8C",
"wX c #A09F9F",
"eX c #A9A198",
"rX c #B0A89F",
"tX c #A3A4A4",
"yX c #A9A7A7",
"uX c #ACADAD",
"iX c #ADB0B3",
"pX c #B2B2B0",
"aX c #B4B4B5",
"sX c #B6B6B7",
"dX c #BCBCBC",
"fX c #D0B189",
"gX c #C0BCB9",
"hX c #C4C2BF",
"jX c #F6D8B6",
"kX c #B0B8C0",
"lX c #BFC0C1",
"zX c #C3C3C3",
"xX c #C6C8CB",
"cX c #CBCCCC",
"vX c #CECFCF",
"bX c #D4D4D4",
"nX c #D6D8D9",
"mX c #DCDCDC",
"MX c #E7D9CB",
"NX c #DBDFE3",
"BX c #DFE0E1",
"VX c #E3E4E4",
"CX c #E7E8EA",
"ZX c #EBEBEC",
"AX c #F1EFED",
"SX c #F3F3F3",
"DX c #F7F8F9",
"FX c #FEFEFE",
"GX c #FFFFFF",
/* pixels */
"~ ~ ~ ~ ~ ~ ~ ~ ~ ~ ~ ~ ~ ~ ~ ~ ~ ~ ~ ~ ~ ~ ~ ~ ~ ~ ~ ~ ~ ~ ~ ~ ~ ~ ~ ~ ~ ~ ~ ~ ~ ~ ~ ~ ~ ~ ~ ~ ~ ~ ~ ~ ~ ~ ~ ~ ~ ~ ~ ~ ~ ~ ~ ~ ~ ~ ~ ~ ~ ~ ~ ~ ~ ~ ~ ~ ~ ~ ~ ~ ",
"~ ~ ~ ~ ~ ~ ~ ~ ~ ~ ~ ~ ~ ~ ~ ~ ~ ~ ~ ~ ~ ~ ~ ~ ~ ~ ~ ~ ~ ~ ~ ~ ~ ~ ~ ~ ~ ~ ~ ~ ~ ~ ~ ~ ~ ~ ~ ~ ~ ~ ~ ~ ~ ~ ~ ~ ~ ~ ~ ~ ~ ~ ~ ~ ~ ~ ~ ~ ~ ~ ~ ~ ~ ~ ~ ~ ~ ~ ~ ~ ",
"~ ~ ~ ~ ~ ~ ~ ~ ~ ~ ~ ~ ~ ~ ~ ~ ~ ~ ~ ~ ~ ~ ~ ~ ~ ~ ~ ~ ~ ~ ~ ~ ~ ~ ~ ~ ~ ~ ~ ~ ~ ~ ~ ~ ~ ~ ~ ~ ~ ~ ~ ~ ~ ~ ~ ~ ~ ~ ~ ~ ~ ~ ~ ~ ~ ~ ~ ~ ~ ~ ~ ~ ~ ~ ~ ~ ~ ~ ~ ~ ",
"~ ~ ~ ~ ~ ~ ~ ~ ~ ~ ~ ~ ~ ~ ~ ~ ~ ~ ~ ~ ~ ~ ~ ~ ~ ~ ~ ~ ~ ~ ~ ~ ~ ~ ~ ~ ~ ~ ~ ~ ~ ~ ~ ~ ~ ~ ~ ~ ~ ~ ~ ~ ~ ~ ~ ~ ~ ~ ~ ~ ~ ~ ~ ~ ~ ~ ~ ~ ~ ~ ~ ~ ~ ~ ~ ~ ~ ~ ~ ~ ",
"~ ~ ~ ~ ~ ~ ~ ~ ~ ~ ~ ~ ~ ~ ~ ~ ~ ~ ~ ~ ~ ~ ~ ~ ~ ~ ~ ~ ~ ~ ~ ~ ~ ~ ~ ~ ~ ~ ~ ~ ~ ~ ~ ~ ~ ~ ~ ~ ~ ~ ~ ~ ~ ~ ~ ~ ~ ~ ~ ~ ~ ~ ~ ~ ~ ~ ~ ~ ~ ~ ~ ~ ~ ~ ~ ~ ~ ~ ~ ~ ",
"~ ~ ~ ~ ~ ~ ~ ~ ~ ~ ~ ~ ~ ~ ~ ~ ~ ~ ~ ~ ~ ~ ~ ~ ~ ~ ~ ~ ~ ~ ~ ~ ~ ~ ~ ~ ~ ~ ~ ~ ~ ~ ~ ~ ~ ~ ~ ~ ~ ~ ~ ~ ~ ~ ~ ~ ~ ~ ~ ~ ~ ~ ~ ~ ~ ~ ~ ~ ~ ~ ~ ~ ~ ~ ~ ~ ~ ~ ~ ~ ",
"~ ~ ~ ~ ~ ~ ~ ~ ~ ~ ~ ~ ~ ~ ~ ~ ~ ~ ~ ~ ~ ~ ~ ~ ~ ~ ~ ~ ~ ~ ~ ~ ~ ~ ~ ~ ~ ~ ~ ~ ~ ~ ~ ~ ~ ~ ~ ~ ~ ~ ~ ~ ~ ~ ~ ~ ~ ~ ~ ~ ~ ~ ~ ~ ~ ~ ~ ~ ~ ~ ~ ~ ~ ~ ~ ~ ~ ~ ~ ~ ",
"~ ~ ~ ~ ~ ~ ~ ~ ~ ~ ~ ~ ~ ~ ~ ~ ~ ~ ~ ~ ~ ~ ~ ~ ~ ~ ~ ~ ~ ~ ~ ~ ~ ~ ~ ~ ~ ~ ~ ~ ~ ~ ~ ~ ~ ~ ~ ~ ~ ~ ~ ~ ~ ~ ~ ~ ~ ~ ~ ~ ~ ~ ~ ~ ~ ~ ~ ~ ~ ~ ~ ~ ~ ~ ~ ~ ~ ~ ~ ~ ",
"~ ~ ~ ~ ~ ~ ~ ~ ~ ~ ~ ~ ~ ~ ~ ~ ~ ~ ~ ~ ~ ~ ~ ~ ~ ~ ~ ~ ~ ~ ~ ~ ~ ~ ~ ~ ~ ~ ~ ~ ~ ~ ~ ~ ~ ~ ~ ~ ~ ~ ~ ~ ~ ~ ~ ~ ~ ~ ~ ~ ~ ~ ~ ~ ~ ~ ~ ~ ~ ~ ~ ~ ~ ~ ~ ~ ~ ~ ~ ~ ",
"~ ~ ~ ~ ~ ~ ~ ~ ~ ~ ~ ~ ~ ~ ~ ~ ~ ~ ~ ~ ~ ~ ~ ~ ~ ~ ~ ~ ~ ~ ~ ~ ~ ~ ~ ~ ~ ~ ~ ~ ~ ~ ~ ~ ~ ~ ~ ~ ~ ~ ~ ~ ~ ~ ~ ~ ~ ~ ~ ~ ~ ~ ~ ~ ~ ~ ~ ~ ~ ~ ~ ~ ~ ~ ~ ~ ~ ~ ~ ~ ",
"~ ~ ~ ~ ~ ~ ~ ~ ~ ~ ~ ~ ~ ~ ~ ~ E E E E E E E E E E E ~ ~ ~ ~ E E E ~ ~ ~ ~ E E E E ~ ~ ~ ~ ~ ~ ~ ~ ~ ~ ~ ~ ~ ~ ~ ~ ~ ~ ~ ~ ~ ~ ~ ~ ~ ~ ~ ~ ~ ~ ~ ~ ~ ~ ~ ~ ~ ~ ",
"~ ~ ~ ~ ~ ~ ~ ~ ~ ~ ~ ~ ~ ~ E E A C C C C C C C C A E ~ ~ ~ E A A A E ~ ~ E E A A E E ~ ~ ~ ~ ~ ~ ~ ~ ~ ~ ~ ~ ~ ~ ~ ~ ~ ~ ~ ~ ~ ~ ~ ~ ~ ~ ~ ~ ~ ~ ~ ~ ~ ~ ~ ~ ~ ",
"~ ~ ~ ~ ~ ~ ~ ~ ~ ~ ~ ~ ~ ~ E W R R R R R R R R R R W E ~ E W R R W Q ~ ~ E W R R W E ~ ~ ~ ~ ~ ~ ~ ~ ~ ~ ~ ~ ~ ~ ~ ~ ~ ~ ~ ~ ~ ~ ~ ~ ~ ~ ~ ~ ~ ~ ~ ~ ~ ~ ~ ~ ~ ",
"~ ~ ~ ~ ~ ~ ~ ~ ~ ~ ~ ~ ~ / ! [  .o.o.o.o.o.o.o.o. .{ / / / {  .o. .{ / / ! [ | | [ { / ~ ~ ~ ~ ~ ~ ~ ~ ~ ~ ~ ~ ~ ~ ~ ~ ~ ~ ~ ~ ~ ~ ~ ~ ~ ~ ~ ~ ~ ~ ~ ~ ~ ~ ~ ~ ",
"~ ~ ~ ~ ~ ~ ~ ~ ~ ~ ~ E E ! @.*.4.6.<X6.6.6.6.6.6.2.$.@.! @.$.2.4.1.$.{ ! #.>.4.4.>.#.! E E ~ ~ ~ ~ ~ ~ ~ ~ ~ ~ ~ ~ ~ ~ ~ ~ ~ ~ ~ ~ ~ ~ ~ ~ ~ ~ ~ ~ ~ ~ ~ ~ ~ ~ ",
"~ ~ ~ ~ ~ ~ ~ ~ ~ ~ E A A [ $.N.0XuXaXaXiXiXaXaXuX9X5.$.[ $.5.9XtX5X2. .[ *.2XwXwX2X>.[ A A E ~ ~ ~ ~ ~ ~ ~ ~ ~ ~ ~ ~ ~ ~ ~ ~ ~ ~ ~ ~ ~ ~ ~ ~ ~ ~ ~ ~ ~ ~ ~ ~ ~ ",
"~ ~ ~ ~ ~ ~ ~ ~ ~ ~ E A R | 4.0XzXmXVXVXVXVXVXVXnXzX8X<.O.>.8XdXcXaX2X&.O.5.tXcXcXuX6.O.R A E ~ ~ ~ ~ ~ ~ ~ ~ ~ ~ ~ ~ ~ ~ ~ ~ ~ ~ ~ ~ ~ ~ ~ ~ ~ ~ ~ ~ ~ ~ ~ ~ ~ ",
"~ ~ ~ ~ ~ ~ ~ ~ ~ / ! [ | ,.3XaXVXGXGXGXGXGXGXGXGXnXuX1X<.6.uXnXZXvXtX4.<.3XdXVXVXzX8X<.O.[ ! / ~ ~ ~ ~ ~ ~ ~ ~ ~ ~ ~ ~ ~ ~ ~ ~ ~ ~ ~ ~ ~ ~ ~ ~ ~ ~ ~ ~ ~ ~ ~ ~ ",
"~ ~ ~ ~ ~ ~ ~ E E ! @.*.5.3XuXcXZXGXGXGXGXGXGXGXGXVXzXtX8XtXzXVXSXmXdX0X8XuXbXZXZXnXaX8X5.*.@.Q S S ~ ~ ~ ~ ~ ~ ~ ~ ~ ~ ~ ~ ~ ~ ~ ~ ~ ~ ~ ~ ~ ~ ~ ~ ~ ~ ~ ~ ~ ~ ",
"~ ~ ~ ~ ~ ~ ~ E W [ *.N.eXdXbXVXSXGXGXGXGXGXGXGXGXSXmXcXzXcXmXAXSXZXnXzXzXvXVXSXSXZXnXdXtX-X*.[ C A E ~ ~ ~ ~ ~ ~ ~ ~ ~ ~ ~ ~ ~ ~ ~ ~ ~ ~ ~ ~ ~ ~ ~ ~ ~ ~ ~ ~ ~ ",
"~ ~ ~ ~ ~ ~ E A R } <.9XzXVXSXGXGXGXGXGXGXGXGXGXGXGXSXZXZXZXSXGXGXGXSXZXZXZXSXGXGXGXSXVXcXwX4.o.R A E ~ ~ ~ ~ ~ ~ ~ ~ ~ ~ ~ ~ ~ ~ ~ ~ ~ ~ ~ ~ ~ ~ ~ ~ ~ ~ ~ ~ ~ ",
"~ ~ ~ ~ ~ ~ E A R } 4.tXnXGXGXGXGXGXSXZXVXVXZXSXGXGXGXGXGXGXGXGXGXGXGXGXGXGXGXGXGXGXGXGXVXdX6X<.O.{ ! / ~ ~ ~ ~ ~ ~ ~ ~ ~ ~ ~ ~ ~ ~ ~ ~ ~ ~ ~ ~ ~ ~ ~ ~ ~ ~ ~ ~ ",
"~ ~ ~ ~ ~ ~ E C T ] 4.tXnXGXGXGXGXSXVXcXdXzXcXVXSXGXGXGXGXGXGXGXGXGXGXGXGXGXGXGXGXGXGXGXZXbXaX9X1X1.#.{ E E ~ ~ ~ ~ ~ ~ ~ ~ ~ ~ ~ ~ ~ ~ ~ ~ ~ ~ ~ ~ ~ ~ ~ ~ ~ ~ ",
"~ ~ ~ ~ ~ ~ E C Z ] 4.tXnXGXGXGXGXSXbXuX8X8XuXbXSXGXGXGXGXGXGXGXGXGXGXGXGXGXGXGXGXGXGXGXSXZXmXxXuX2X>.[ W E ~ ~ ~ ~ ~ ~ ~ ~ ~ ~ ~ ~ ~ ~ ~ ~ ~ ~ ~ ~ ~ ~ ~ ~ ~ ~ ",
"~ ~ ~ ~ ~ ~ E A R } 4.tXbXSXGXGXGXZXzX8X<.<.8XzXZXGXGXGXGXGXGXGXGXGXGXGXGXGXGXGXGXGXGXGXGXGXSXVXzX8X<.} C A E ~ ~ ~ ~ ~ ~ ~ ~ ~ ~ ~ ~ ~ ~ ~ ~ ~ ~ ~ ~ ~ ~ ~ ~ ~ ",
"~ ~ ~ ~ ~ ~ E A R } <.8XdXnXZXGXGXZXdX1X+.O.5.tXcXVXSXDXGXGXGXGXGXGXGXGXGXSXCXBXBXCXSXGXGXSXZXnXaX2X+.` Z C E ~ ^ ^ ~ ~ ~ ~ ~ ~ ~ ~ ~ ~ ~ ~ ~ ~ ~ ~ ~ ~ ~ ~ ~ ~ ",
"~ ~ ~ ~ ~ ~ ~ E W { $.5.8XuXcXVXSXCXdX1XO.] -.1XtXdXnXZXGXGXGXGXGXGXGXGXSXBXxXaXaXxXVXSXSXVXcXiX6X,.` s a b S ~ ^ ^ ^ ^ ^ ^ ^ ^ ~ ~ ~ ~ ~ ~ ~ ~ ~ ~ ~ ~ ~ ~ ~ ~ ",
"~ ~ ~ ~ ~ ~ ~ ~ E ! @.$.<.1XtXcXZXVXlX2X+.' ] +.4.8XaXnXSXGXGXGXGXGXGXGXSXcXtX3X3XuXbXZXCXcXtX<X-._ p 1 0 a B ~ ^ ^ ^ ^ ^ ^ ^ ^ ~ ~ ~ ~ ~ ~ ~ ~ ~ ~ ~ ~ ~ ~ ~ ~ ",
"~ ~ ~ ~ ~ ~ ~ ~ ~ ~ ! W } $.1XaXnXmXdX4X$.' T ` o.4.tXbXSXGXGXGXGXGXGXGXVXdX3X1.1.5XzXVXmXaX2X$.Z i > + - y m S ~ ~ ~ ~ ~ ~ ~ ~ ~ ~ ~ ~ ~ ~ ~ ~ ~ ~ ~ ~ ~ ~ ~ ~ ",
"~ ~ ~ ~ ~ ~ ~ ~ ~ ~ E A C [ <.3XuXaXeX-X%.( Y C ' :.9XcXSXGXGXGXGXSXZXmXzXeXM.%.%.-XrXhXgXqXM.) M u $ . @ 7 u c m m n c c c n m B S ~ ~ ~ ~ ~ ~ ~ ~ ~ ~ ~ ~ ~ ~ ",
"~ ~ ~ ~ ~ ~ ~ ~ ~ ~ ~ S A W  .>.4.N.M.v.i.y.) Y ` ;.7XxXSXGXGXGXDXVXxXiX0X;Xv.i.i.v.;X9X5X:Xv.y.L g 3 .   @ - 7 7 7 7 7 7 2 7 y x B ~ ^ ^ ~ ~ ~ ~ ~ ~ ~ ~ ~ ~ ~ ",
"~ ~ ~ ~ ~ ~ ~ ~ ~ ~ ~ ~ E E C Z d C ) 9.e.e.9.) [ :.7XcXSXGXGXGXSXbXiX2X2.b.a.k.k.s.n.1.b.v.a.k.0.k 4 .     . @ @ @ @ @ X X @ 2 y m ~ ^ ^ ~ ~ ~ ~ ~ ~ ~ ~ ~ ~ ~ ",
"~ ~ ~ ~ ~ ~ ~ ~ ~ ~ ~ ^ ~ S b 0 , 3 f 8.g.j.e.t.@.>.8XzXVXGXGXGXSXcX0X2.#.t.e.l.l.e.u.) ) i.k.l.f.7.5 .   o : > > > > > > > > 9 a m V ~ ~ ~ ~ ~ ~ ~ ~ ~ ~ ~ ~ ~ ",
"~ ~ ~ ~ ~ ~ ~ ~ ~ ~ ~ ^ ~ S x 8 @ # f 8.g.l.h.9.u.b.;XyXzXmXZXDXAXcXqXn.t.0.f.l.l.k.9.t.t.e.j.l.f.7.5 @ : p d ' ] ] ] ] ] ' ' ` Z b m m B S ~ ~ ~ ~ ~ ~ ~ ~ ~ ~ ",
"~ ~ ~ ~ ~ ~ ~ ~ ~ ~ ~ ^ ~ S x 8 @ # f 8.g.x.l.h.r.s.v.;X8XiXbXZXAXMXfXm.e.f.g.x.x.j.k.e.e.g.l.x.f.z 5 $ p ..5.8X9X9X8X8X8X8X3X6.$.Z a y x B ~ ~ ~ ~ ~ ~ ~ ~ ~ ~ ",
"~ ~ ~ ~ ~ ~ ~ ~ ~ ~ ~ ^ ~ S x 8 @ # f 8.g.c.c.x.j.k.s.b.1.6XkXNXAXjX,X).l.l.z.c.c.x.l.l.l.x.c.x.d.z 4 - d 3.yXcXnXnXnXbXnXnXcXuX6.` 0 2 y m ~ ~ ^ ~ ~ ~ ~ ~ ~ ~ ",
"~ ~ ~ ~ ~ ~ ~ ~ ~ ~ ~ ^ ~ S x 6 @ & f 8.j.P.P.P.x.j.r.t.#.2.tXcXMXjX,X).L.K.c.c.c.K.P.K.P.P.P.x.d.l 4 - d 4.aXnXVXVXBXVXZXGXSXcX3X] , @ 7 c E ~ ^ ~ ~ ~ ~ ~ ~ ~ ",
"~ ~ ~ ~ ~ ~ ~ ~ ~ ~ ~ ^ ~ S x 6 @ & g q.G.Y.Y.P.K.l.f.9.t.b.;XyXaXfX>X_.W.Y.P.K.P.P.Y.W.W.Y.P.x.d.l 5 = s -.3XuXaXaXaXdXnXZXSXbX8X] > @ 7 x S ~ ^ ~ ~ ~ ~ ~ ~ ~ ",
"~ ~ ~ ~ ~ ~ ~ ~ ~ ~ ~ ^ ~ S x 6 + * H q.T.(.^.Y.P.x.g.f.e.s.n.-X4X:X>X~.(.!.Y.P.P.Y.!.(.(.!.Y.x.d.z 5 @ < d X.:.,.,.,.6.uXnXZXnX8X] > @ 7 c E ~ ^ ~ ~ ~ ~ ~ ~ ~ ",
"~ ~ ~ ~ ~ ~ ~ ~ ~ ~ ~ ^ ~ S x 6 + * J Z.].XX}.W.P.c.z.x.j.k.p.%.=.=XF..XXX}.W.P.P.W.}.XXXX(.Y.J.d.z 5 X o : 1 i i 1 i ` 6.dXVXnX9X] , @ 7 c E ~ ^ ~ ~ ~ ~ ~ ~ ~ ",
"~ ~ ~ ~ ~ ~ ~ ~ ~ ~ ~ ^ ~ S x 6 X * J A.[.@X XW.P.K.K.P.L.j.a.) ) p.D..X@X X!.P.P.!. X@X@X}.W.J.d.7.5 .     . X       i ,.pXmXnX9X] , @ 7 c ~ ~ ^ ~ ~ ~ ~ ~ ~ ~ ",
"~ ~ ~ ~ ~ ~ ~ ~ ~ ~ ~ ^ ~ S x 6 X * J A.{.@X X!.P.P.I.W.W.H.r.9.i.S.T.oX@X X!.P.P.!. X@X@X XW.J.d.7.5 .   . $ # .     i ,.uXmXnX9X] , @ 7 c ~ ^ ^ ~ ~ ~ ~ ~ ~ ~ ",
"~ ~ ~ ~ ~ ~ ~ ~ ~ ~ ~ ^ ~ S x 6 X * J A.[.@X XW.P.P.Y.^.}./.G.h.h.G.~.oX@X X!.P.P.!. X@X@X XW.J.d.z 5 X O , q y 2 @ . i :.uXmXnX9X] , @ 7 c ~ ^ ^ ~ ~ ~ ~ ~ ~ ~ ",
"~ ~ ~ ~ ~ ~ ~ ~ ~ ~ ~ ^ ~ S x 6 X * J A.[.@X XW.P.I.!. XXX XQ.H.H.U./.OX@X X!.I.I.!. X@XOX}.W.J.d.z 5 @ $ q n m u - X i :.uXmXnX9X] , @ 7 c ~ ^ ^ ~ ~ ~ ~ ~ ~ ~ ",
"~ ~ ~ ~ ~ ~ ~ ~ ~ ~ ~ ^ ~ S x 6 + * J A.[.OX XW.P.I.^.XX@XXX(.Y.P.Y.(.OX@XXX^.W.W.^.XX@XOX}.W.J.d.z 5 @ = y N V x 2 + i :.uXmXnX9X] , @ 7 c ~ ^ ^ ~ ~ ~ ~ ~ ~ ~ ",
"~ ~ ~ ~ ~ ~ ~ ~ ~ ~ ~ ^ ~ S x 6 + * J A.[.OX}.W.P.I.^.XX$XXX(.Y.P.Y.(.OX$XOX X(.(. XOX$XOX}.W.x.d.l 5 @ = a B V x 2 @ i :.uXmXnX9X] , @ 7 c ~ ^ ^ ~ ~ ~ ~ ~ ~ ~ ",
"~ ~ ~ ~ ~ ~ ~ ~ ~ ~ ~ ^ ~ S x 6 + * J A.[.OX}.W.P.I.^.XX@XXX(.Y.P.Y.(.OX$X$XOXXXXXOX$X$XOX}.W.x.d.l 5 @ = y N V x 2 @ i :.uXmXnX9X] > @ 7 c ~ ^ ^ ~ ~ ~ ~ ~ ~ ~ ",
"~ ~ ~ ~ ~ ~ ~ ~ ~ ~ ~ ^ ~ S x 6 + * J A.[.@X X!.I.Y.^.XX@XXX^.Y.P.Y.(.OX$X&X$X$X$X$X&X$XOX}.W.J.f.z 5 @ = y N V x 2 + i :.uXmXnX9X] > @ 7 x ~ ^ ^ ~ ~ ~ ~ ~ ~ ~ ",
"~ ~ ~ ~ ~ ~ ~ ~ ~ ~ ~ ^ ~ S x 6 + * J A.[.@XXX^.W.!.}.XX@XXX^.Y.P.Y.(.OX$X&X&X&X&X&X&X&X@X X^.U.h.L 5 @ $ y N V x 2 + i :.uXmXnX9X] , @ 7 c ~ ~ ^ ~ ~ ~ ~ ~ ~ ~ ",
"~ ~ ~ ~ ~ ~ ~ ~ ~ ~ ~ ^ ~ S x 6 + * J A.[.$X@X X(.}.XX@X$XXX^.I.P.Y.(.OX&X&X&X&X&X&X&X&X$XOX X/.G.L w @ $ y B S x 2 @ i :.uXmXnX9X] , @ 7 c ~ ^ ^ ~ ~ ~ ~ ~ ~ ~ ",
"~ ~ ~ ~ ~ ~ ~ ~ ~ ~ ~ ^ ~ S x 6 + * J Z.[.$X$X@XXXOX@X$X$XXX^.I.P.Y.(.OX$X&X&X&X&X&X&X&X$X$X@X|.R.P e @ $ y N V x 2 @ i :.uXmXnX9X] , @ 7 c ~ ^ ^ ~ ~ ~ ~ ~ ~ ~ ",
"~ ~ ~ ~ ~ ~ ~ ~ ~ ~ ~ ^ ~ S x 6 + * J Z.[.&X*X&X$X$X&X&X$XXX^.Y.I.W.(.OX$X&X&X&X&X&X&X&X&X&X&X+XR.I r @ $ q m N u 2 + i :.uXmXnX9X] , @ 7 c ~ ^ ^ ~ ~ ~ ~ ~ ~ ~ ",
"~ ~ ~ ~ ~ ~ ~ ~ ~ ~ ~ ^ ~ S x 6 + * J Z.[.&X*X*X&X&X&X&X$XOX}.!.W.^. X@X&X&X&X&X&X&X&X&X&X*X*X#XE.U r @ O 6 y u 7 @ . i :.uXmXnX9X] , @ 7 x S ^ ^ ~ ~ ~ ~ ~ ~ ~ ",
"~ ~ ~ ~ ~ ~ ~ ~ ~ ~ ~ ^ ~ S x 6 + * J Z.[.&X*X*X&X&X&X&X$X@XXX X}. XXX$X&X&X&X&X&X&X&X&X&X*X*X#XE.w.t X   O - 2 @     i ,.uXmXnX9X] , @ 7 x S ^ ^ ~ ~ ~ ~ ~ ~ ~ ",
"~ ~ ~ ~ ~ ~ ~ ~ ~ ~ ~ ^ ~ S x 6 + * J Z.[.&X*X*X&X&X&X&X&X$X@X@XOX@X@X$X&X&X&X&X&X&X&X&X&X*X*X#XE.w.t X     . X       i ,.uXmXnX9X] , @ 7 x ~ ~ ^ ~ ~ ~ ~ ~ ~ ~ ",
"~ ~ ~ ~ ~ ~ ~ ~ ~ ~ ~ ^ ~ S x 6 + * J Z.[.&X*X&X&X&X&X&X&X&X&X$X$X$X$X&X&X&X&X&X&X&X&X&X&X*X*X#XE.w.t X   o > , > > , d 4.aXVXnX9X] , @ 7 x ~ ^ ^ ~ ~ ~ ~ ~ ~ ~ ",
"~ ~ ~ ~ ~ ~ ~ ~ ~ ~ ~ ^ ~ S x 6 + * J Z.[.&X*X&X&X&X&X&X&X&X&X&X&X&X&X&X&X&X&X&X&X&X&X&X&X*X*X#XE.I r % : p ` o.o.o.o.<.0XcXZXnX8X] > @ 7 x ~ ^ ^ ~ ~ ~ ~ ~ ~ ~ ",
"~ ~ ~ ~ ~ ~ ~ ~ ~ ~ ~ ^ ~ S x 6 + * J Z.[.&X*X&X&X&X&X&X&X&X&X&X&X&X&X&X&X&X&X&X&X&X&X&X&X*X*X#XE.I r = p ..<X0XtXtXtXuXcXVXSXbX8X] > @ 7 x ~ ^ ^ ~ ~ ~ ~ ~ ~ ~ ",
"~ ~ ~ ~ ~ ~ ~ ~ ~ ~ ~ ^ ~ S x 6 + * J Z.[.&X*X&X&X&X&X&X&X&X&X&X&X&X&X&X&X&X&X&X&X&X&X&X&X*X*X#XE.I e - d 3.uXbXmXmXnXmXZXGXSXbX8X] > @ 7 c ~ ^ ^ ~ ~ ~ ~ ~ ~ ~ ",
"~ ~ ~ ~ ~ ~ ~ ~ ~ ~ ~ ^ ~ S x 6 + * J Z.[.&X*X*X&X&X&X&X&X&X&X&X&X&X&X&X&X&X&X&X&X&X&X&X&X*X*X#XE.I e - d 3.iXnXVXVXmXmXVXVXnXdX1X' 9 - 7 n ~ ^ ^ ~ ~ ~ ~ ~ ~ ~ ",
"~ ~ ~ ~ ~ ~ ~ ~ ~ ~ ~ ^ ~ S x 6 + * J A.{.*X*X*X*X&X&X*X*X*X*X*X*X*X*X*X*X&X&X*X*X*X*X*X*X*X*X#XE.U r = p o.1XtXuXuXyXtXtXtX0X2X>.Z y y h N ~ ~ ^ ~ ~ ~ ~ ~ ~ ~ ",
"~ ~ ~ ~ ~ ~ ~ ~ ~ ~ ~ ^ ~ S x 6 + * J A.{.*X*X*X*X*X*X*X*X*X*X*X*X*X*X*X*X*X*X*X*X*X*X*X*X*X*X%X`.U t % < s ' O.-.+.+.+.O.O.o.} R Z b n N V ~ ~ ~ ~ ~ ~ ~ ~ ~ ~ ",
"~ ~ ~ ~ ~ ~ ~ ~ ~ ~ ~ ^ ~ S x 6 @ * J Z.].$X&X&X$X$X$X$X$X$X$X$X$X$X$X$X$X$X$X$X$X$X$X$X&X&X&X+XE.U t X o ; < 1 1 1 1 1 1 1 1 i a m B S ~ ~ ~ ~ ~ ~ ~ ~ ~ ~ ~ ~ ",
"~ ~ ~ ~ ~ ~ ~ ~ ~ ~ ~ ^ ~ S v q , 3 H B.D.'.].].'.'.'.'.'.'.'.'.'.'.'.'.'.'.'.'.'.'.'.'.'.].].`.A.P t & O O X X X X + + X X @ - y m S ^ ^ ~ ~ ~ ~ ~ ~ ~ ~ ~ ~ ~ ",
"~ ~ ~ ~ ~ ~ ~ ~ ~ ~ ~ ^ ~ ~ N x y u G K w.V.C.C.V.V.V.V.V.V.V.V.V.V.V.V.V.V.V.V.V.V.V.V.V.C.C.B.I K j q 6 6 2 2 2 2 2 2 2 - 2 7 h N ~ ^ ^ ^ ~ ~ ~ ~ ~ ~ ~ ~ ~ ~ ",
"~ ~ ~ ~ ~ ~ ~ ~ ~ ~ ~ ~ ~ ~ S N m n j j F F F F F F F F F F F F F F F F F F F F F F F F F F F F G j j c c x x x x x x x h h h c N V ~ ^ ^ ~ ~ ~ ~ ~ ~ ~ ~ ~ ~ ~ ",
"~ ~ ~ ~ ~ ~ ~ ~ ~ ~ ~ ~ ~ ~ ~ ~ S B c u & % % % % % % % % % % % % % % % % % % % % % % % % % % & 3 u n V S D S S S S S S S V V S ~ ~ ~ ~ ~ ~ ~ ~ ~ ~ ~ ~ ~ ~ ~ ~ ",
"~ ~ ~ ~ ~ ~ ~ ~ ~ ~ ~ ~ ~ ~ ^ ^ ^ S n y , @ O + @ @ @ @ @ @ @ @ @ @ @ @ @ @ @ @ @ @ @ $ @ + + $ 6 a N ~ ^ ^ ^ ~ ~ ~ ~ ~ ~ ~ ~ ~ ^ ~ ~ ~ ~ ~ ~ ~ ~ ~ ~ ~ ~ ~ ~ ~ ",
"~ ~ ~ ~ ~ ~ ~ ~ ~ ~ ~ ~ ~ ~ ^ ^ ^ ~ N x q 9 8 8 8 8 8 9 9 9 9 9 9 9 8 9 9 9 9 9 9 9 9 9 8 8 8 0 a c V ~ ^ ^ ^ ^ ^ ^ ^ ^ ^ ^ ^ ^ ^ ~ ~ ~ ~ ~ ~ ~ ~ ~ ~ ~ ~ ~ ~ ~ ",
"~ ~ ~ ~ ~ ~ ~ ~ ~ ~ ~ ~ ~ ~ ~ ^ ~ ~ S N m c c c c c c c c c v v c c c c c c c c c c c v c c c m m V D ~ ^ ^ ~ ~ ~ ~ ~ ~ ~ ~ ~ ~ ~ ~ ~ ~ ~ ~ ~ ~ ~ ~ ~ ~ ~ ~ ~ ~ ",
"~ ~ ~ ~ ~ ~ ~ ~ ~ ~ ~ ~ ~ ~ ~ ~ ~ ~ ~ ~ ~ ~ ~ E S S ~ ~ ~ ~ ~ ~ ~ ~ S S ~ ~ ~ ~ ~ ~ ~ ~ S S E ~ ~ ~ ~ ~ ~ ~ ~ ~ ~ ~ ~ ~ ~ ~ ~ ~ ~ ~ ~ ~ ~ ~ ~ ~ ~ ~ ~ ~ ~ ~ ~ ~ ",
"~ ~ ~ ~ ~ ~ ~ ~ ~ ~ ~ ~ ~ ~ ~ ~ ~ ~ ~ ~ ^ ^ ^ ^ ~ ~ ^ ^ ^ ^ ^ ^ ^ ^ ^ ~ ^ ^ ^ ^ ^ ^ ^ ^ ~ ~ ^ ^ ^ ~ ~ ~ ~ ~ ~ ~ ~ ~ ~ ~ ~ ~ ~ ~ ~ ~ ~ ~ ~ ~ ~ ~ ~ ~ ~ ~ ~ ~ ~ ~ ",
"~ ~ ~ ~ ~ ~ ~ ~ ~ ~ ~ ~ ~ ~ ~ ~ ~ ~ ~ ^ ^ ^ ^ ^ ^ ^ ^ ^ ^ ^ ^ ^ ^ ^ ^ ^ ^ ^ ^ ^ ^ ^ ^ ^ ^ ^ ^ ^ ^ ~ ~ ~ ~ ~ ~ ~ ~ ~ ~ ~ ~ ~ ~ ~ ~ ~ ~ ~ ~ ~ ~ ~ ~ ~ ~ ~ ~ ~ ~ ~ ",
"~ ~ ~ ~ ~ ~ ~ ~ ~ ~ ~ ~ ~ ~ ~ ~ ~ ~ ~ ~ ~ ~ ~ ~ ~ ~ ~ ~ ~ ~ ~ ~ ~ ~ ~ ~ ~ ~ ~ ~ ~ ~ ~ ~ ~ ~ ~ ~ ~ ~ ~ ~ ~ ~ ~ ~ ~ ~ ~ ~ ~ ~ ~ ~ ~ ~ ~ ~ ~ ~ ~ ~ ~ ~ ~ ~ ~ ~ ~ ~ ",
"~ ~ ~ ~ ~ ~ ~ ~ ~ ~ ~ ~ ~ ~ ~ ~ ~ ~ ~ ~ ~ ~ ~ ~ ~ ~ ~ ~ ~ ~ ~ ~ ~ ~ ~ ~ ~ ~ ~ ~ ~ ~ ~ ~ ~ ~ ~ ~ ~ ~ ~ ~ ~ ~ ~ ~ ~ ~ ~ ~ ~ ~ ~ ~ ~ ~ ~ ~ ~ ~ ~ ~ ~ ~ ~ ~ ~ ~ ~ ~ ",
"~ ~ ~ ~ ~ ~ ~ ~ ~ ~ ~ ~ ~ ~ ~ ~ ~ ~ ~ ~ ~ ~ ~ ~ ~ ~ ~ ~ ~ ~ ~ ~ ~ ~ ~ ~ ~ ~ ~ ~ ~ ~ ~ ~ ~ ~ ~ ~ ~ ~ ~ ~ ~ ~ ~ ~ ~ ~ ~ ~ ~ ~ ~ ~ ~ ~ ~ ~ ~ ~ ~ ~ ~ ~ ~ ~ ~ ~ ~ ~ ",
"~ ~ ~ ~ ~ ~ ~ ~ ~ ~ ~ ~ ~ ~ ~ ~ ~ ~ ~ ~ ~ ~ ~ ~ ~ ~ ~ ~ ~ ~ ~ ~ ~ ~ ~ ~ ~ ~ ~ ~ ~ ~ ~ ~ ~ ~ ~ ~ ~ ~ ~ ~ ~ ~ ~ ~ ~ ~ ~ ~ ~ ~ ~ ~ ~ ~ ~ ~ ~ ~ ~ ~ ~ ~ ~ ~ ~ ~ ~ ~ ",
"~ ~ ~ ~ ~ ~ ~ ~ ~ ~ ~ ~ ~ ~ ~ ~ ~ ~ ~ ~ ~ ~ ~ ~ ~ ~ ~ ~ ~ ~ ~ ~ ~ ~ ~ ~ ~ ~ ~ ~ ~ ~ ~ ~ ~ ~ ~ ~ ~ ~ ~ ~ ~ ~ ~ ~ ~ ~ ~ ~ ~ ~ ~ ~ ~ ~ ~ ~ ~ ~ ~ ~ ~ ~ ~ ~ ~ ~ ~ ~ ",
"~ ~ ~ ~ ~ ~ ~ ~ ~ ~ ~ ~ ~ ~ ~ ~ ~ ~ ~ ~ ~ ~ ~ ~ ~ ~ ~ ~ ~ ~ ~ ~ ~ ~ ~ ~ ~ ~ ~ ~ ~ ~ ~ ~ ~ ~ ~ ~ ~ ~ ~ ~ ~ ~ ~ ~ ~ ~ ~ ~ ~ ~ ~ ~ ~ ~ ~ ~ ~ ~ ~ ~ ~ ~ ~ ~ ~ ~ ~ ~ ",
"~ ~ ~ ~ ~ ~ ~ ~ ~ ~ ~ ~ ~ ~ ~ ~ ~ ~ ~ ~ ~ ~ ~ ~ ~ ~ ~ ~ ~ ~ ~ ~ ~ ~ ~ ~ ~ ~ ~ ~ ~ ~ ~ ~ ~ ~ ~ ~ ~ ~ ~ ~ ~ ~ ~ ~ ~ ~ ~ ~ ~ ~ ~ ~ ~ ~ ~ ~ ~ ~ ~ ~ ~ ~ ~ ~ ~ ~ ~ ~ "
};
