/* XPM */
static char *_103cdf70c7a4b6cd771283a5beac750TzFmqEcdoTMB2EXX[] = {
/* columns rows colors chars-per-pixel */
"80 80 244 2 ",
"   c #020101",
".  c #0C0903",
"X  c #140D07",
"o  c #131200",
"O  c #1A1600",
"+  c #1B1901",
"@  c #19120D",
"#  c #1E1611",
"$  c #271302",
"%  c #371902",
"&  c #221913",
"*  c #271C15",
"=  c #2B2A00",
"-  c #383A00",
";  c #2C221A",
":  c #37281D",
">  c #3B2B21",
",  c #3D3127",
"<  c #482401",
"1  c #4E3206",
"2  c #65350E",
"3  c #7A3A01",
"4  c #432E23",
"5  c #493728",
"6  c #563D2C",
"7  c #5E3C36",
"8  c #5C3B38",
"9  c #613E35",
"0  c #6A3F32",
"q  c #753C30",
"w  c #3D4200",
"e  c #434300",
"r  c #4D4C00",
"t  c #534C01",
"y  c #4F5000",
"u  c #515200",
"i  c #6A5005",
"p  c #777600",
"a  c #56402E",
"s  c #5E4235",
"d  c #5D4038",
"f  c #64412E",
"g  c #794B2D",
"h  c #75552F",
"j  c #7C5E2D",
"k  c #664435",
"l  c #694534",
"z  c #654936",
"x  c #6B4B33",
"c  c #6D4A39",
"v  c #754234",
"b  c #724B31",
"n  c #734E3B",
"m  c #6E5138",
"M  c #75533D",
"N  c #79533E",
"B  c #7F612C",
"V  c #584B45",
"C  c #644742",
"Z  c #755543",
"A  c #7B5641",
"S  c #7B5B42",
"D  c #6D5854",
"F  c #5A506D",
"G  c #6E4962",
"H  c #675468",
"J  c #7A7571",
"K  c #803A00",
"L  c #93362F",
"P  c #B5302E",
"I  c #EE121E",
"U  c #F5141D",
"Y  c #EF381F",
"T  c #F03C1E",
"R  c #C11F23",
"E  c #D91B26",
"W  c #EA1922",
"Q  c #F21D24",
"!  c #CA2427",
"~  c #DB2E2E",
"^  c #EC2928",
"/  c #F12826",
"(  c #EF3320",
")  c #E93432",
"_  c #914C0A",
"`  c #B25B0D",
"'  c #A85C1B",
"]  c #93740D",
"[  c #A86512",
"{  c #B6621A",
"}  c #824E2B",
"|  c #895329",
" . c #9B5823",
".. c #914B34",
"X. c #B1522A",
"o. c #83672A",
"O. c #986527",
"+. c #8C7227",
"@. c #937725",
"#. c #A96023",
"$. c #C55F00",
"%. c #F0461D",
"&. c #EE501B",
"*. c #F2541A",
"=. c #CA6606",
"-. c #D66C09",
";. c #DB740D",
":. c #CA6A12",
">. c #E67408",
",. c #F77B03",
"<. c #E3631A",
"1. c #F56817",
"2. c #F46E16",
"3. c #F86319",
"4. c #EB7615",
"5. c #F57714",
"6. c #CC4332",
"7. c #E24220",
"8. c #EC4C3E",
"9. c #A83456",
"0. c #D73346",
"q. c #845C45",
"w. c #885F47",
"e. c #915948",
"r. c #B25744",
"t. c #846248",
"y. c #8B6249",
"u. c #91654C",
"i. c #946A4E",
"p. c #996A4A",
"a. c #886E58",
"s. c #946D52",
"d. c #996D51",
"f. c #967255",
"g. c #9D7353",
"h. c #A27556",
"j. c #A67A57",
"k. c #AC7D5B",
"l. c #B77557",
"z. c #A3566D",
"x. c #8C7673",
"c. c #D7514F",
"v. c #EB4D41",
"b. c #E85748",
"n. c #D46C53",
"m. c #EA6752",
"M. c #EA785A",
"N. c #D37670",
"B. c #8A8801",
"V. c #978D01",
"C. c #8E9000",
"Z. c #979600",
"A. c #B28E0D",
"S. c #A38A1F",
"D. c #A98D1E",
"F. c #B4971A",
"G. c #AEA800",
"H. c #B9A617",
"J. c #9D8622",
"K. c #A28920",
"L. c #D09118",
"P. c #FB9A0E",
"I. c #F78711",
"U. c #E89710",
"Y. c #F69110",
"T. c #FD9111",
"R. c #C8B00F",
"E. c #C7B213",
"W. c #CDBA11",
"Q. c #D3BA11",
"!. c #E9AE0B",
"~. c #FEA40E",
"^. c #FBAE0B",
"/. c #F9B20B",
"(. c #FBBC0A",
"). c #D2C903",
"_. c #D6CD00",
"`. c #D8CD00",
"'. c #D7C40B",
"]. c #E6C60C",
"[. c #FBC807",
"{. c #EADB06",
"}. c #FBD304",
"|. c #F7D804",
" X c #EFEC05",
".X c #F2E404",
"XX c #FDE402",
"oX c #F7EB03",
"OX c #FDEB01",
"+X c #FCF100",
"@X c #FEF100",
"#X c #FFF600",
"$X c #FFFA00",
"%X c #FFFE00",
"&X c #AF815D",
"*X c #B3825E",
"=X c #B8815E",
"-X c #B48660",
";X c #B98966",
":X c #BC8B64",
">X c #A88C75",
",X c #D7805F",
"<X c #C48E66",
"1X c #DB8F69",
"2X c #C5926A",
"3X c #C9956B",
"4X c #CB946B",
"5X c #D49A6D",
"6X c #CA9A76",
"7X c #D69C73",
"8X c #E58966",
"9X c #E6956D",
"0X c #E99469",
"qX c #E69D72",
"wX c #DDA16F",
"eX c #DBA274",
"rX c #E3A677",
"tX c #E3A778",
"yX c #E5AA7A",
"uX c #EAAE7C",
"iX c #EDB07E",
"pX c #666297",
"aX c #525BA3",
"sX c #6259A4",
"dX c #6E6EB1",
"fX c #5367D4",
"gX c #6775D7",
"hX c #596DE7",
"jX c #546FEC",
"kX c #4A6DF7",
"lX c #446DFE",
"zX c #955F92",
"xX c #8574AF",
"cX c #8276C4",
"vX c #AC898F",
"bX c #A99D94",
"nX c #AE9CA1",
"mX c #DAAB86",
"MX c #CFAD92",
"NX c #D4B49A",
"BX c #E0AC81",
"VX c #E4B186",
"CX c #F2B480",
"ZX c #C3B0A1",
/* pixels */
"k k k k k k k k k k k k k k k k k k k k k k k k k k 9 7 7 7 8 7 7 7 7 7 7 7 7 7 7 7 7 7 7 7 7 7 7 8 7 7 7 9 k k k k k k k k k k k k k k k k k k k k k k k k k k ",
"k k k k k k k k k k k k k k k k k k k k k k k k k k k k k k k k k k k k k k k k k k k k k k k k k k k k k k k k k k k k k k k k k k k k k k k k k k k k k k k k ",
"k k k k k k k k k k k k k k k k k k k k k k k k k x b h j B B j j j j j j j j j j j j j j j j j j B B j h b x k k k k k k k k k k k k k k k k k k k k k k k k k ",
"k k k k k k k k k k k k k k k k k k k k k k 9 9 k x B @.J.S.S.S.S.S.S.S.S.S.S.S.S.S.S.S.S.S.S.S.S.S.S.J.@.B x k 9 k k k k k k k k k k k k k k k k k k k k k k k ",
"k k k k k k k k k k k k k k k k k k k k k k 7 7 k h @.F.E.Q.Q.W.W.W.W.W.W.W.W.W.W.W.W.W.W.W.W.W.W.Q.Q.E.F.@.h k 7 9 k k k k k k k k k k k k k k k k k k k k k k ",
"k k k k k k k k k k k k k k k k k k k k k k k k x o.D.W.{..X.X.X.X.X.X.X.X.X.X.X.X.X.X.X.X.X.X.X.X.X.X{.W.D.o.x k k k k k k k k k k k k k k k k k k k k k k k k ",
"k k k k k k k k k k k k k k k k k k k k k x x h o.J.H.'.oX#X$X#X#X#X#X#X#X#X#X#X#X#X#X#X#X#X#X#X#X$X#XoX'.H.J.o.h x x k k k k k k k k k k k k k k k k k k k k k ",
"k k k k k k k k k k k k k k k k k k k k k b o.@.D.H.'.{.@X$X%X$X$X$X%X%X%X%X%X%X%X%X%X%X%X%X$X$X$X$X$X@X{.'.H.D.@.o.b k k k k k k k k k k k k k k k k k k k k k ",
"k k k k k k k k k k k k k k k k k k k 9 k h @.F.W.].{.oX@X#X#X#X#X#X$X$X$X$X$X$X$X$X$X$X$X$X#X#X#X#X#X@XoX{.].W.F.@.h k 9 k k k k k k k k k k k k k k k k k k k ",
"k k k k k k k k k k k k k k k k k k 9 9 k j J.E.{.oX@X@X@X@X@X@X@XOXOXOXXXXXXXXXXXXXXXXXOXOXOX@X@X@X@X@X@X@XoX{.E.J.j k 7 9 k k k k k k k k k k k k k k k k k k ",
"k k k k k k k k k k k k k k k k k k 9 7 k j K.W..X$X%X$X#X#X#X#X@XXX}.[.(.(.(.(.(.(.(.(.[.}.XX@X#X#X#X#X$X%X$X.XW.K.j k 7 9 k k k k k k k k k k k k k k k k k k ",
"k k k k k k k k k k k k k k k k k k 9 8 k j J.'. X%X%X%X$X$X%X%X@X}./.Y.5.5.5.5.5.5.5.5.Y./.}.OX%X%X$X$X%X%X%X X'.J.j k 8 9 k k k k k k k k k k k k k k k k k k ",
"k k k k k k k k k k k k k k k k k k 9 7 k j K.W..X$X%X$X#X$X$X$XOX[.Y.1.%.T %.%.%.%.T %.1.Y.[.OX$X$X$X#X$X%X$X.XW.K.j k 7 9 k k k k k k k k k k k k k k k k k k ",
"k k k k k k k k k k k k k k k k k k k l b o.D.Q.|.XXXXXXXXXXXXXX}./.I.*.Y ( ( ( ( ( ( Y *.I./.}.XXXXXXXXXXXXXX|.Q.D.o.b l k k k k k k k k k k k k k k k k k k k ",
"k k k k k k k k k k k k k k k k k x h B +.K.F.U.!.^././.^.^././.~.Y.5.1.*.*.*.*.*.*.*.*.1.5.Y.~././.^.^.^./.^.!.U.F.K.+.B h x k k k k k k k k k k k k k k k k k ",
"k k k k k k k k k k k k k k k k k x o.J.H.E.L.U.4.2.2.2.2.2.2.2.2.5.I.I.Y.Y.Y.Y.Y.Y.Y.Y.I.I.5.2.2.2.2.2.2.2.2.4.U.L.E.H.J.o.b k k k k k k k k k k k k k k k k k ",
"k k k k k k k k k k k k k k k 9 k h @.H.'.!.U.4.&.T Y T T T Y Y %.1.Y./.[.}.}.[.[.}.}.[./.Y.1.%.Y Y T T T Y T &.4.U.!.'.H.@.h k 9 k k k k k k k k k k k k k k k ",
"k k k k k k k k k k k k k k k 9 k h @.E.].(.P.2.%.Y ( Y Y Y ( ( %.2.P.}.OX#X#X@X@X#X#XOX}.P.2.%.( ( Y Y Y ( Y %.2.P.(.].E.@.h k 7 k k k k k k k k k k k k k k k ",
"k k k k k k k k k k k k k k k 7 9 b O.L.U.P.T.5.1.3.3.3.3.3.*.3.1.T.(.XX$X%X%X%X%X%X%X$XXX(.T.1.3.*.3.3.3.3.3.1.5.T.P.U.L.O.b k 7 k k k k k k k k k k k k k k k ",
"k k k k k k k k k k k k k k k 7 9 v ..X.<.2.I.T.~.~.~.~.~.~.~.~.~.(.}.OX%X%X%X%X%X%X%X%XOX}.(.~.~.~.~.~.~.~.~.~.T.I.2.<.X...v 9 7 k k k k k k k k k k k k k k k ",
"k k k k k k k k k k k k k l k k l v L P Y *.5.~.[.}.|.}.}.}.}.}.}.|.XXOX@X@X@X@X@X@X@X@XOXXX|.}.}.}.}.}.}.|.}.[.~.5.*.Y P L v k k k k k k k k k k k k k k k k k ",
"k k k k k k k k k k k k k l x h j | X.6.7.&.4.U.'.`.`.`.`.`.`._._._.`.`.`.`._._._.`.`.`.`.`._._._.`.`.`.`.`.`.'.U.4.&.7.6.X.| j h x k k k k k k k k k k k k k k ",
"k k k k k k k k k k d 7 k l h +.J.D.L.4.4.4.;.A.Z.Z.Z.Z.Z.Z.Z.Z.Z.Z.Z.V.V.V.V.V.V.V.V.V.V.Z.Z.Z.Z.Z.Z.Z.Z.Z.Z.Z.A.;.4.4.4.L.D.J.+.h l d 7 k k k k k k k k k k k ",
"k k k k k k k k k k d 8 d x o.K.E.Q.].(./.!.A.] i u r y u u r r r r r r r r r r r r r r r r r r r r u u y r u i ] A.!./.(.].Q.E.K.o.x 7 8 d k k k k k k k k k k ",
"k k k k k k k k k l k k k h +.F.'.{.XXXX|.Q.V.i = O o o O O O O + + O O O O O + + O O O O O + + + O O O o o O = t V.Q.|.XX.X{.'.F.+.h k k k l k k k k k k k k k ",
"k k k k k k l b g } } } } | @.A.R.)._._.).G.p 1 o         . @ & * # X .   . @ & & @ .   . X # * & @ .         o 1 p G.)._._.).R.A.@.| } } } } g b l k k k k k k ",
"k k k k k k b |  .' { { ' ' [ ] ] B.C.C.B.p u = .         @ > 6 s 5 ; X . # > 6 6 > # . X ; 5 s 6 > @         . = y p B.B.B.B.B.] [ [ { { { '  .| b k k k k k k ",
"k k k k k l g  .{ -.;.>.;.:.[ i t e w e e - = O         . * s t.s.S 5 # X : z y.y.z : X # 5 S s.t.s * .         o = - w w w e t _ ` =.;.>.;.-.{  .g l k k k k k ",
"k k k k k l } ' :.>.,.,.,.>.` i < O o o o . .           X : M j.-Xs.s ; & 5 y.;X;Xy.5 & ; s s.-Xj.M : X         . o O O o o O % 3 ` -.,.,.,.>.:.' } l k k k k k ",
"k k k k k l g  .{ -.>.,.,.,.=._ 1 % O .           . X & : a S g.j.i.c 5 5 M j.5X5Xj.M 5 5 m i.j.g.S a : & X .   . $ % % % % % < 3 ` -.>.>.>.-.{  .g l k k k k k ",
"k k k k k k b |  .{ :.>.,.,.-.` _ 3 < $ .         X : 6 m M S S S M M M q.g.2XeXeX<Xg.t.M M M S S S M m 6 ; X . $ < 2 3 K 3 3 K _ ' { { { { {  .| b k k k k k k ",
"k k k k k k l b g | ' :.>.,.,.>.=.` 3 < o         & 6 t.h.s.M 6 4 6 M g.-X3XeXrXrXeX3X-Xg.M 6 4 6 M s.g.t.5 & X % 3 ` $.=.=.$.` `  .| | | | | } b l k k k k k k ",
"k k k k k k k k k b | { -.>.,.,.,.=._ 1 $       X : M k.2X&XM : & > S *XeXyXyXyXyXyXyXeX*XS > & : M &X2Xj.m : $ < _ =.>.,.,.>.-.{ | b l k l l l l k k k k k k k ",
"k k k k k k k k d k g  .{ :.;.>.;.:._ 2 % & # ; 4 l s.2X7X-XM : @ : S :XyXCXiXyXyXiXCXyX:XS : @ : M -X7X2Xs.z 6 f _ :.;.>.>.;.:.' } l d d k k k k k k k k k k k ",
"k k k k k k k k k k b }  .' { { { ' | 2 4 4 5 z S g.;X7XeX*Xm : @ > S :XyXCXiXyXyXiXCXyX:XS > @ : m *XeX7X;Xs.t.|  .#.{ { { { #.| g k d d d k k k k k k k k k k ",
"k k k k k k k k k k l b g } } } } g b 9 6 k A s.*X3XeXtXeX&Xc ; @ : S :XtXiXiXyXyXuXiXtX;XS : @ ; c &XeXtXeX2X=Xj.p.| } } } } g b l k k k k k k k k k k k k k k ",
"k k k k k k k k k k k k k l l l l k k k k N i.;X7XyXiXiXeX-XZ , ; 5 t.:XrXuXuXyXyXuXuXrX:Xt.5 ; , Z -XeXiXiXyX7X;Xi.N k k k l k k k k k k k k k k k k k k k k k ",
"k k k k k k k k k k k k k k k k k k k k k A g.<XtXCXCXiXeX;Xa.V V D f.2XtXuXuXyXyXuXuXrX2Xf.D V V a.;XeXiXCXCXtX<Xd.Z k 7 7 d k k k k k k k k k k k k k k k k k ",
"k k k k k k k k k k k k k k k k k k 7 k k A g.<XtXiXCXuXtX6X>Xx.J x.>X6XtXuXuXyXyXyXuXtX6X>Xx.J x.>X6XtXiXCXiXtX<Xd.Z k 7 7 k k k k k k k k k k k k k k k k k k ",
"k k k k k k k k k k k k k k k k k k k 9 k N d.:XeXyXuXuXtXmXbXbXbXbXMXmXtXyXyXyXyXyXyXtXmXMXbXbXbXbXmXtXuXuXyXeX:Xd.N k s k k k k k k k k k k k k k k k k k k k ",
"k k k k k k k k k k k k k k k k k k k k k N u.k.3X7XrXrXtXmXMXZXZXZXMXmXyXyXyXyXyXyXyXyXmXMXZXZXZXMXmXtXrXrX7X3Xk.u.N k k k k k k k k k k k k k k k k k k k k k ",
"k k k k k k k k k k k k k k k k k k k k k n q.d.k.:X3XeXtXVXNXNXNXNXmXmXyXyXyXyXyXyXyXyXBXmXNXNXNXNXVXtXeX3X:Xk.d.q.n k k k k k k k k k k k k k k k k k k k k k ",
"k k k k k k k k k k k k k k k k k k k k k c n A y.h.;X5XtXVXVXmXmXmXmXyXyXyXyXyXyXyXyXyXyXmXmXmXmXVXVXtX5X;Xh.y.S n c k k k k k k k k k k k k k k k k k k k k k ",
"k k k k k k k k k k k k k k k k k k k k k k k k n w.j.<XeXyXuXyXmXyXyXtXyXyXyXyXyXyXyXyXyXyXyXyXyXuXyXeX<Xj.w.n c k k k k k k k k k k k k k k k k k k k k k k k ",
"k k k k k k k k k k k k k k k k k k k k k k k k k N i.*X3X7XeXrXyXyXyXyXyXyXyXyXyXyXyXyXyXyXyXyXrXeX7X3X&Xi.N k k k k k k k k k k k k k k k k k k k k k k k k k ",
"k k k k k k k k k k k k k k k k k k k k k k k 9 k c q.i.k.:X3XeXyXuXiXuXuXyXyXtXyXyXyXuXuXuXuXyXeX3X:Xk.i.q.c k 9 k k k k k k k k k k k k k k k k k k k k k k k ",
"k k k k k k k k k k k k k k k k k k k k k k k k k k n A y.h.;X5XyXiXiXuXuXyXtXtXyXyXyXuXuXiXuXyX5X;Xh.y.A n k k k k k k k k k k k k k k k k k k k k k k k k k k ",
"k k k k k k k k k k k k k k k k k k k k k k k k k k k k n y.k.2XeXyXyXrXrXrXrXyXyXrXrXrXrXrXrXeX2Xk.y.n k k k k k k k k k k k k k k k k k k k k k k k k k k k k ",
"k k k k k k k k k k k k k k k k k k k k k k k k k k k k k N i.*X<X3X1X8X8X9XqXrXrXqX9X8X8X1X3X<X&Xi.A k k k k k k k k k k k k k k k k k k k k k k k k k k k k k ",
"k k k k k k k k k k k k k k k k k k k k k k k k k k k 9 k c S s.j.l.n.n.m.M.0XqXqX0XM.m.n.n.l.j.s.S c k 9 k k k k k k k k k k k k k k k k k k k k k k k k k k k ",
"k k k k k k k k k k k k k k k k k k k k k k k k k k k k k c c A q.e.X.6.8.m.8XqXqX8Xm.8.6.X.e.q.A n c k k k k k k k k k k k k k k k k k k k k k k k k k k k k k ",
"k k k k k k k k k k k k k k k k k k k k k k k k k k k k k k k c v L P ~ ) v.M.9X9XM.v.) ~ P L v c k k k k k k k k k k k k k k k k k k k k k k k k k k k k k k k ",
"k k k k k k k k k k k k k k k k k k k k k k k k k k k k k 0 q q L P R E ^ v.M.9X9XM.v.^ E R P L q q 0 k k k k k k k k k k k k k k k k k k k k k k k k k k k k k ",
"k k k k k k k k k k k k k k k k k k k k k k k k k k k k 0 q L L P ! E W ^ v.M.9X9XM.v.^ W E ! P L L q 0 k k k k k k k k k k k k k k k k k k k k k k k k k k k k ",
"k k k k k k k k k k k k k k k k k k k k k k k k k k k k k q L P ! E W W ^ v.M.9X9XM.v.^ W W E ! P L q k k k k k k k k k k k k k k k k k k k k k k k k k k k k k ",
"k k k k k k k k k k k k k k k k k k k k k k k k k k z c n ..P ! W W I W ^ v.M.9X9XM.v.^ W W W W ! P ..n c z k k k k k k k k k k k k k k k k k k k k k k k k k k ",
"k k k k k k k k k k k k k k k k k k k k k k k k k c Z q.u.r.6.^ W U U U / 8.M.0X0XM.v./ U U U Q ~ 6.r.u.q.Z c k k k k k k k k k k k k k k k k k k k k k k k k k ",
"k k k k k k k k k k k k k k k k k k k k k k k 9 k c t.g.l.n.c.) Q U U U / 8.M.0X0XM.8./ U U U Q ) c.n.l.g.t.n k 9 k k k k k k k k k k k k k k k k k k k k k k k ",
"k k k k k k k k k k k k k k k k k k k k k k k k k A s.-X3XM.b.) ^ W I W ^ v.M.9X9XM.v.^ W I W Q ) b.M.3X-Xs.A k k k k k k k k k k k k k k k k k k k k k k k k k ",
"k k k k k k k k k k k k k k k k k k k k k k k c N y.h.:X3X,Xc.~ ~ E E ~ 0.c.N.mXmXN.c.0.~ E E ~ ~ c.,X3X;Xh.y.N c k k k k k k k k k k k k k k k k k k k k k k k ",
"k k k k k k k k k k k k k k k k k k k k k c N w.i.g.k.*X=Xl.r.P P P 9.9.z.zXzXvXvXzXzXz.9.9.P P P r.l.*X*Xk.g.i.w.N c k k k k k k k k k k k k k k k k k k k k k ",
"k k k k k k k k k k k k k k k k k k k k k n y.h.*X-Xk.h.i.e.....L 9.z.zXzXxXcXcXcXcXxXzXzXz.9.L ....e.i.h.k.-X*Xh.y.n k k k k k k k k k k k k k k k k k k k k k ",
"k k k k k k k k k k k k k k k k k k k k k N i.*X2X<Xk.y.A c q q v G pXdXfXhXhXhXhXhXhXfXdXpXG v v v b A u.k.<X2X*Xi.N k k k k k k k k k k k k k k k k k k k k k ",
"k k k k k k k k k k k k k k k k k k k k k N i.*X<X:Xh.w.c 9 9 0 C F aXfXkXlXlXkXkXkXlXkXfXaXF C k f k c w.h.:X<Xk.u.N k k k k k k k k k k k k k k k k k k k k k ",
"k k k k k k k k k k k k k k k k k k k k k n w.g.k.j.u.N k 7 6 k C F aXfXlXlXlXlXlXlXlXlXfXaXF C s 6 7 k N u.j.k.g.w.n k k k k k k k k k k k k k k k k k k k k k ",
"k k k k k k k k k k k k k k k k k k k k k c N q.y.w.A c k k f k C F aXfXkXlXlXlXlXlXlXkXfXaXF C k f k k c A w.y.q.N c k k k k k k k k k k k k k k k k k k k k k ",
"k k k k k k k k k k k k k k k k k k k k k k k c c c c k k k f k C H sXfXjXkXkXjXjXkXkXjXfXsXH C k f k k k c c c c k k k k k k k k k k k k k k k k k k k k k k k ",
"k k k k k k k k k k k k k k k k k k k k k k k k k k k k k k f k C H pXdXgXgXfXfXfXfXgXgXdXpXH c k f k k k k k k k k k k k k k k k k k k k k k k k k k k k k k k ",
"k k k k k k k k k k k k k k k k k k k k k k k k 9 k k k k k f k c D zXxXnXxXdXpXpXdXxXnXxXzXD c k k k k k k k 9 k k k k k k k k k k k k k k k k k k k k k k k k ",
"k k k k k k k k k k k k k k k k k k k k k k k k k k k k k k k k c S x.vXvXvXx.H H x.vXvXvXx.S c k k k k k k k k k k k k k k k k k k k k k k k k k k k k k k k k ",
"k k k k k k k k k k k k k k k k k k k k k k k k k k k k k k k k c w.k.6X6X;Xs.Z Z s.;X6X6Xk.y.c k k k k k k k k k k k k k k k k k k k k k k k k k k k k k k k k ",
"k k k k k k k k k k k k k k k k k k k k k k k k k k k k k k k k c y.*X5X7X<Xp.N N p.<X7X5X*Xy.c k k k k k k k k k k k k k k k k k k k k k k k k k k k k k k k k ",
"k k k k k k k k k k k k k k k k k k k k k k k k k k k k k k k k c y.=X5XwX<Xp.N N p.<XwX5X=Xy.c k 9 k k k k k k k k k k k k k k k k k k k k k k k k k k k k k k ",
"k k k k k k k k k k k k k k k k k k k k k k k k k k k k k k k k c y.*X5X7X:Xi.N N i.:X7X5X*Xy.c k 9 k k k k k k k k k k k k k k k k k k k k k k k k k k k k k k ",
"k k k k k k k k k k k k k k k k k k k k k k k k k k k k k k k k c y.k.2X3X*Xu.N N u.*X3X2Xk.y.c k 9 k k k k k k k k k k k k k k k k k k k k k k k k k k k k k k ",
"k k k k k k k k k k k k k k k k k k k k k k k k k k k k k k k k c q.d.k.*Xh.w.n n w.h.*Xk.d.q.c k k k k k k k k k k k k k k k k k k k k k k k k k k k k k k k k ",
"k k k k k k k k k k k k k k k k k k k k k k k k k k k k k k k k k N w.y.u.w.N c c N w.u.y.w.N k k k k k k k k k k k k k k k k k k k k k k k k k k k k k k k k k ",
"k k k k k k k k k k k k k k k k k k k k k k k k k k k k k k k k k c n N N n c k k c n N N n c k k k k k k k k k k k k k k k k k k k k k k k k k k k k k k k k k ",
"k k k k k k k k k k k k k k k k k k k k k k k k k k k k k k k k k k k k k k k k k k k k k k k k k k k k k k k k k k k k k k k k k k k k k k k k k k k k k k k k ",
"k k k k k k k k k k k k k k k k k k k k k k k k k k k k k k k k k k k 9 7 k k k k k k 7 9 k k k k k k k k k k k k k k k k k k k k k k k k k k k k k k k k k k k "
};
